<mxfile modified="2024-07-01T10:39:37.811Z" host="app.diagrams.net" agent="Mozilla/5.0 (Macintosh; Intel Mac OS X 10_15_7) AppleWebKit/537.36 (KHTML, like Gecko) Chrome/126.0.0.0 Safari/537.36" etag="q3BqHlVyM1uWbFeAyl8P" version="24.6.2" type="github">
  <diagram id="ht8XLaf6jJ3nLXsBiUgN" name="Context Diagram">
    <mxGraphModel dx="1266" dy="684" grid="1" gridSize="10" guides="1" tooltips="1" connect="1" arrows="1" fold="1" page="1" pageScale="1" pageWidth="850" pageHeight="1100" math="0" shadow="0">
      <root>
        <mxCell id="0" />
        <mxCell id="1" parent="0" />
        <mxCell id="pKedLyWLhT7_cz3XbITA-1" value="fileSlackerBot Context Diagram" style="text;html=1;resizable=0;points=[];autosize=1;align=left;verticalAlign=top;spacingTop=-4;fontSize=30;fontStyle=1;labelBackgroundColor=none;" parent="1" vertex="1">
          <mxGeometry x="36.5" y="26.5" width="440" height="40" as="geometry" />
        </mxCell>
        <mxCell id="pKedLyWLhT7_cz3XbITA-2" value="Slack file upload to AWS S3" style="text;html=1;resizable=0;points=[];autosize=1;align=left;verticalAlign=top;spacingTop=-4;fontSize=16;labelBackgroundColor=none;" parent="1" vertex="1">
          <mxGeometry x="36.5" y="76.5" width="220" height="30" as="geometry" />
        </mxCell>
        <mxCell id="pKedLyWLhT7_cz3XbITA-3" value="" style="line;strokeWidth=2;html=1;fontSize=14;labelBackgroundColor=none;" parent="1" vertex="1">
          <mxGeometry x="32.5" y="101.5" width="787.5" height="7.43" as="geometry" />
        </mxCell>
        <mxCell id="v46jo1MRVlEFeAzN4dOq-8" value="file event" style="edgeStyle=orthogonalEdgeStyle;rounded=0;orthogonalLoop=1;jettySize=auto;html=1;" parent="1" source="zX4YmGl2pMrQpp44t2aF-1" target="v46jo1MRVlEFeAzN4dOq-1" edge="1">
          <mxGeometry x="0.4717" relative="1" as="geometry">
            <Array as="points">
              <mxPoint x="240" y="361" />
            </Array>
            <mxPoint as="offset" />
          </mxGeometry>
        </mxCell>
        <mxCell id="zX4YmGl2pMrQpp44t2aF-1" value="fileSlackerBot&lt;div&gt;&amp;lt;Slack App&amp;gt;&lt;/div&gt;" style="label;whiteSpace=wrap;html=1;align=center;verticalAlign=bottom;spacingLeft=0;spacingBottom=4;imageAlign=center;imageVerticalAlign=top;image=img/clipart/Gear_128x128.png" parent="1" vertex="1">
          <mxGeometry x="180" y="416" width="120" height="90" as="geometry" />
        </mxCell>
        <mxCell id="F2rPBs1zbs9ifVhxVMKk-1" value="AWS Cloud" style="points=[[0,0],[0.25,0],[0.5,0],[0.75,0],[1,0],[1,0.25],[1,0.5],[1,0.75],[1,1],[0.75,1],[0.5,1],[0.25,1],[0,1],[0,0.75],[0,0.5],[0,0.25]];outlineConnect=0;gradientColor=none;html=1;whiteSpace=wrap;fontSize=12;fontStyle=0;shape=mxgraph.aws4.group;grIcon=mxgraph.aws4.group_aws_cloud_alt;strokeColor=#232F3E;fillColor=none;verticalAlign=top;align=left;spacingLeft=30;fontColor=#232F3E;dashed=0;labelBackgroundColor=none;container=1;pointerEvents=0;collapsible=0;recursiveResize=0;" parent="1" vertex="1">
          <mxGeometry x="330" y="278" width="495.77" height="408" as="geometry" />
        </mxCell>
        <mxCell id="v46jo1MRVlEFeAzN4dOq-6" style="edgeStyle=orthogonalEdgeStyle;rounded=0;orthogonalLoop=1;jettySize=auto;html=1;" parent="F2rPBs1zbs9ifVhxVMKk-1" source="m8k4FFVWe7b1hvoH6xhx-1" target="UySv5_TV7MqXvUuesCI_-1" edge="1">
          <mxGeometry relative="1" as="geometry">
            <Array as="points">
              <mxPoint x="180" y="170" />
            </Array>
          </mxGeometry>
        </mxCell>
        <mxCell id="v46jo1MRVlEFeAzN4dOq-7" value="PUT event" style="edgeLabel;html=1;align=center;verticalAlign=middle;resizable=0;points=[];" parent="v46jo1MRVlEFeAzN4dOq-6" vertex="1" connectable="0">
          <mxGeometry x="-0.1051" y="-2" relative="1" as="geometry">
            <mxPoint x="14" y="1" as="offset" />
          </mxGeometry>
        </mxCell>
        <mxCell id="m8k4FFVWe7b1hvoH6xhx-1" value="fileSlackerBucket&lt;br&gt;&amp;lt;AWS S3&amp;gt;" style="outlineConnect=0;fontColor=#232F3E;gradientColor=#60A337;gradientDirection=north;fillColor=#277116;strokeColor=#ffffff;dashed=0;verticalLabelPosition=bottom;verticalAlign=top;align=center;html=1;fontSize=12;fontStyle=0;aspect=fixed;shape=mxgraph.aws4.resourceIcon;resIcon=mxgraph.aws4.s3;labelBackgroundColor=none;" parent="F2rPBs1zbs9ifVhxVMKk-1" vertex="1">
          <mxGeometry x="351" y="130" width="78" height="78" as="geometry" />
        </mxCell>
        <mxCell id="UySv5_TV7MqXvUuesCI_-8" style="edgeStyle=orthogonalEdgeStyle;rounded=0;orthogonalLoop=1;jettySize=auto;html=1;" parent="F2rPBs1zbs9ifVhxVMKk-1" source="UySv5_TV7MqXvUuesCI_-1" target="m8k4FFVWe7b1hvoH6xhx-1" edge="1">
          <mxGeometry relative="1" as="geometry">
            <Array as="points">
              <mxPoint x="470" y="279" />
              <mxPoint x="470" y="169" />
            </Array>
          </mxGeometry>
        </mxCell>
        <mxCell id="UySv5_TV7MqXvUuesCI_-9" value="query metadate of files" style="edgeLabel;html=1;align=center;verticalAlign=middle;resizable=0;points=[];" parent="UySv5_TV7MqXvUuesCI_-8" vertex="1" connectable="0">
          <mxGeometry x="0.0695" y="1" relative="1" as="geometry">
            <mxPoint x="-98" y="1" as="offset" />
          </mxGeometry>
        </mxCell>
        <mxCell id="UySv5_TV7MqXvUuesCI_-1" value="fileStatsSlacker" style="outlineConnect=0;fontColor=#232F3E;gradientColor=none;fillColor=#D05C17;strokeColor=none;dashed=0;verticalLabelPosition=bottom;verticalAlign=top;align=center;html=1;fontSize=12;fontStyle=0;aspect=fixed;pointerEvents=1;shape=mxgraph.aws4.lambda_function;labelBackgroundColor=#ffffff;spacingTop=7;" parent="F2rPBs1zbs9ifVhxVMKk-1" vertex="1">
          <mxGeometry x="141" y="239.9999999999999" width="78" height="78" as="geometry" />
        </mxCell>
        <mxCell id="v46jo1MRVlEFeAzN4dOq-1" value="fileSlacker" style="outlineConnect=0;fontColor=#232F3E;gradientColor=none;fillColor=#D05C17;strokeColor=none;dashed=0;verticalLabelPosition=bottom;verticalAlign=top;align=center;html=1;fontSize=12;fontStyle=0;aspect=fixed;pointerEvents=1;shape=mxgraph.aws4.lambda_function;labelBackgroundColor=#ffffff;spacingTop=7;" parent="F2rPBs1zbs9ifVhxVMKk-1" vertex="1">
          <mxGeometry x="141" y="41.999999999999886" width="78" height="78" as="geometry" />
        </mxCell>
        <mxCell id="UySv5_TV7MqXvUuesCI_-12" style="edgeStyle=orthogonalEdgeStyle;rounded=0;orthogonalLoop=1;jettySize=auto;html=1;" parent="F2rPBs1zbs9ifVhxVMKk-1" source="v46jo1MRVlEFeAzN4dOq-1" target="m8k4FFVWe7b1hvoH6xhx-1" edge="1">
          <mxGeometry relative="1" as="geometry">
            <Array as="points">
              <mxPoint x="390" y="80" />
            </Array>
            <mxPoint x="190" y="80" as="sourcePoint" />
          </mxGeometry>
        </mxCell>
        <mxCell id="6lIP8FJLp_YwbdEiwZGx-1" value="persist file and metadata" style="edgeLabel;html=1;align=center;verticalAlign=middle;resizable=0;points=[];" vertex="1" connectable="0" parent="UySv5_TV7MqXvUuesCI_-12">
          <mxGeometry x="-0.466" relative="1" as="geometry">
            <mxPoint x="30" y="-1" as="offset" />
          </mxGeometry>
        </mxCell>
        <mxCell id="UySv5_TV7MqXvUuesCI_-6" style="edgeStyle=orthogonalEdgeStyle;rounded=0;orthogonalLoop=1;jettySize=auto;html=1;entryX=0.5;entryY=1;entryDx=0;entryDy=0;" parent="1" source="UySv5_TV7MqXvUuesCI_-1" target="zX4YmGl2pMrQpp44t2aF-1" edge="1">
          <mxGeometry relative="1" as="geometry">
            <mxPoint x="260" y="481" as="targetPoint" />
            <Array as="points">
              <mxPoint x="240" y="560" />
            </Array>
          </mxGeometry>
        </mxCell>
        <mxCell id="UySv5_TV7MqXvUuesCI_-10" value="summarize files in S3" style="edgeLabel;html=1;align=center;verticalAlign=middle;resizable=0;points=[];" parent="UySv5_TV7MqXvUuesCI_-6" vertex="1" connectable="0">
          <mxGeometry x="-0.2214" y="3" relative="1" as="geometry">
            <mxPoint x="43" y="-3" as="offset" />
          </mxGeometry>
        </mxCell>
        <mxCell id="v46jo1MRVlEFeAzN4dOq-3" style="edgeStyle=orthogonalEdgeStyle;rounded=0;orthogonalLoop=1;jettySize=auto;html=1;startArrow=classic;startFill=1;" parent="1" source="v46jo1MRVlEFeAzN4dOq-2" target="zX4YmGl2pMrQpp44t2aF-1" edge="1">
          <mxGeometry relative="1" as="geometry" />
        </mxCell>
        <mxCell id="v46jo1MRVlEFeAzN4dOq-2" value="Slack" style="shape=image;verticalLabelPosition=bottom;labelBackgroundColor=default;verticalAlign=top;aspect=fixed;imageAspect=0;image=data:image/png,iVBORw0KGgoAAAANSUhEUgAAAwkAAAMJCAYAAABIm3qMAAAACXBIWXMAABYl&#xa;AAAWJQFJUiTwAAAAAXNSR0IArs4c6QAAAARnQU1BAACxjwv8YQUAAGLiSURB&#xa;VHgB7d0JsGTXfd/33116ffs282afAQYzIDYSADeQEilS1krt3mTTUVIqOVLi&#xa;peykXI7LdpIqOxVXucp2JY7lSllKokgJZbkUUbJMiaIIkRJBSgAJkFgH2+zz&#xa;3szbl97vknNOzwC4IADODF6/17f7+wEuut+bBwymu2/3+d3/+Z/jpYYAAAAA&#xa;4DpfAAAAAPAGhAQAAAAAGYQEAAAAABmEBAAAAAAZhAQAAAAAGYQEAAAAABmE&#xa;BAAAAAAZhAQAAAAAGYQEAAAAABmEBAAAAAAZhAQAAAAAGYQEAAAAABmEBAAA&#xa;AAAZhAQAAAAAGYQEAAAAABmEBAAAAAAZhAQAAAAAGYQEAAAAABmEBAAAAAAZ&#xa;hAQAAAAAGYQEAAAAABmEBAAAAAAZhAQAAAAAGYQEAAAAABmEBAAAAAAZhAQA&#xa;AAAAGYQEAAAAABmEBAAAAAAZhAQAAAAAGYQEAAAAABmEBAAAAAAZhAQAAAAA&#xa;GYQEAAAAABmEBAAAAAAZhAQAAAAAGYQEAAAAABmEBAAAAAAZhAQAAAAAGYQE&#xa;AAAAABmEBAAAAAAZhAQAAAAAGYQEAAAAABmEBAAAAAAZhAQAAAAAGYQEAAAA&#xa;ABmEBAAAAAAZhAQAAAAAGYQEAAAAABmEBAAAAAAZhAQAAAAAGYQEAAAAABmE&#xa;BAAAAAAZhAQAAAAAGYQEAAAAABmEBAAAAAAZhAQAAAAAGYQEAAAAABmEBAAA&#xa;AAAZhAQAAAAAGYQEAAAAABmEBAAAAAAZhAQAAAAAGYQEAAAAABmEBAAAAAAZ&#xa;hAQAAAAAGYQEAAAAABmEBAAAAAAZhAQAAAAAGYQEAAAAABmEBAAAAAAZhAQA&#xa;AAAAGYQEAAAAABmEBAAAAAAZhAQAAAAAGYQEAAAAABmEBAAAAAAZhAQAAAAA&#xa;GYQEAAAAABmEBAAAAAAZhAQAAAAAGYQEAAAAABmEBAAAAAAZhAQAAAAAGYQE&#xa;AAAAABmEBAAAAAAZhAQAAAAAGYQEAAAAABmEBAAAAAAZhAQAAAAAGYQEAAAA&#xa;ABmEBAAAAAAZhAQAAAAAGYQEAAAAABmEBAAAAAAZhAQAAAAAGYQEAAAAABmE&#xa;BAAAAAAZhAQAAAAAGYQEAAAAABmEBAAAAAAZhAQAAAAAGYQEAAAAABmEBAAA&#xa;AAAZhAQAAAAAGYQEAAAAABmEBAAAAAAZhAQAAAAAGYQEAAAAABmEBAAAAAAZ&#xa;hAQAAAAAGYQEAAAAABmEBAAAAAAZhAQAAAAAGYQEAAAAABmEBAAAAAAZhAQA&#xa;AAAAGYQEAAAAABmEBAAAAAAZhAQAAAAAGYQEAAAAABmEBAAAAAAZhAQAAAAA&#xa;GYQEAAAAABmEBAAAAAAZhAQAAAAAGYQEAAAAABmEBAAAAAAZhAQAAAAAGYQE&#xa;AAAAABmEBAAAAAAZhAQAAAAAGYQEAAAAABmEBAAAAAAZhAQAAAAAGYQEAAAA&#xa;ABmEBAAAAAAZhAQAAAAAGYQEAAAAABmEBAAAAAAZhAQAAAAAGYQEAAAAABmE&#xa;BAAAAAAZhAQAAAAAGYQEAAAAABmEBAAAAAAZhAQAAAAAGYQEAAAAABmEBAAA&#xa;AAAZhAQAAAAAGYQEAAAAABmEBAAAAAAZhAQAAAAAGYQEAAAAABmEBAAAAAAZ&#xa;hAQAAAAAGYQEAAAAABmEBAAAAAAZhAQAAAAAGYQEAAAAABmEBAAAAAAZhAQA&#xa;AAAAGYQEAAAAABmEBAAAAAAZhAQAAAAAGYQEAAAAABmEBAAAAAAZhAQAAAAA&#xa;GYQEAAAAABmEBAAAAAAZhAQAAAAAGYQEAAAAABmEBAAAAAAZhAQAAAAAGYQE&#xa;AAAAABmEBAAAAAAZhAQAAAAAGYQEAAAAABmEBAAAAAAZhAQAAAAAGaEAAN8m&#xa;SlM1E+lcPdZKJ9Wz27G2I5n7iVbaiZbbqepxan5OqpnbNxvxPZUDaaboayz0&#xa;3HGo5KtivvfwRGi+7+mY/QH0RD1qqxa19NWVl7XRaWixsaH1dt08Z229un1N&#xa;zbhjnre22nGkVhJl/t1qUNRUsarJQlXVsKRRc4wXKjo1Pq/Z0qg5xnTa3B8L&#xa;ywKAQUVIADD0TBaQyQTajBOZDKB1EwraSap1M3ZcaCXaihJ324qlDXPf5AX3&#xa;6zYgvEU+cMyPyPyoGuYHPPu1+Q0K5o7JDHqxFmuy7Zmwkapsw4Q5Rk1esJlh&#xa;PKTAe6uixDxvaay1du21Qb+9v9lp6mxtSdudlvt6K2q6X29EHfM8R4rNv5fo&#xa;25/AVPb5Nz9nQkScJuZ5jt3XlXrB/DcbWmnVzL8fa8SGBxMUQj/QRLGikh+a&#xa;55ePVQCDwUvTNBUADDE74DfjdT221tFlUz54fCN2A/hzjVi9drdJB/OmwvCB&#xa;iUCHTEp4ZJJB5q3aMmHganNTX7j6nK7U13Slsa4zWwsuJPSKrSjYQPCBmRM6&#xa;Up3Wg1PHdHxk1n0fAAYBn0YAhpINBuaCvs6aILBggsEVUyk4W09MpSB1X9eT&#xa;3bl+stxO1DTVho75/SYLsc7XY+0zocEe80XPXJ3uTlXC6+yUITt16FxtWcvN&#xa;LVMtWNZ21NLZ7SVXLdgyV/tbcaRestOZWl6kM5sLbirTxdqq5isTblrS/ZOH&#xa;3RSlO0f3CQDyikoCgKG0bQbm11qpvrja0TObkZ7eitUwA/V4D98RbSCYLni6&#xa;fyzQfeOh3muqDBPm6wMlpiC90Upr2wWDRxefNxWDRT2+elb9oNvDUNSnjz+i&#xa;/eVxfd/8vQKAvCIkABgKthHZTin6xkasy6Zq8FuLbdcnsOr6D6SOuW/fDff6&#xa;DTHwvNd6F/aZf5TN7acPldyUpHtGh7fRuWGu3K916vrM+T/V5caanlq74HoP&#xa;3qrxeK/45rnz5bmG5sDzdWRk2lQVjugBU1n44MwdJvBVBAB5wXQjAAPPTi2y&#xa;lQNTMNCiCQhXmomumsN2HDST/rpOYoOLrWbYlZV8JS4s2KlQ1qxJD5XAU9Uc&#xa;wZDMQLINw7ZJ+FpzS6vtmq6YgLDY3NCyqSb0m8Q8d7YR2oYZGxKChq+Z4qg5&#xa;RrQ0siV7TW6sUDYxwnOBAgD6GZUEAAPNVgme2Y70zc1Yn73a1oapHNT7LBjc&#xa;jKrvualHP2OqCo9Mha7KMAxB4Vvrl/T0xiV99tI3dKm+5pY1zaPvmrtLM6VR&#xa;/cLJT7iGZxqcAfQ7KgkABtb5eqL1KNFX1yKdbyRuOdL+mJhy6+z/t/3/t4HH&#xa;5Bw9NB64hub5AexXsJUDu9SobQZ+ZvOyntm44sJBnPZ+taleWWiuqx639JWl&#xa;l12/wgdmjqtgwkLo0W8CoD8REgAMrK9tRG5q0WcW8nn1+Y3cMq2mKvLF5Y6+&#xa;vBrpZw93+xQGMSTYjc7skqa/efnrbvWgFzYXlXevbC2528XGptuI7eTYPtfo&#xa;HIZFAUA/YroRgIFzphbrBXN87lpHa53d2e9gt9jWZd+T7qwGmi56+on9RR2r&#xa;+jo+ALs326VN7dKlv/Lqn2gjaujxlbNut2R7DAq7m/NoWNaHZu/Qw9N2b4U5&#xa;3T9xyG3IBgD9hEoCgIFjm5O/tRm7sFCPB+s6iI079o9kQ9BYy9O9Y4mbdnS8&#xa;rNxzuyGboPCV5ZfdakYXGqsaNDYI2WbsP7r2gkZMYAi9QKfH5gkJAPoOlQQA&#xa;A+PVeqJ/e6Gp86ZycK6RaFg8PBHqIXN8aq6Qyz0VbmyO9kuv/LEeW37J7Zg8&#xa;TP7bu39QhyqT+t75ewQA/YJKAoCBYEPBpabdMdnuYKyhsnV9l+iF60ul5iko&#xa;2Kvqm+2G6zu41txwXw+bxea6+3PbZV3tdKQqfQoA+gAhAcBA+L8vt7TSTvXU&#xa;5pAlBOPFWuwO60DZ188dLikP4jRxA+OvLL2kX371j101wVYVhs2vnfuapopV&#xa;t+rRqbF519gMAHuNkAAg1+zSpivtxA2SGwPWf3Cr7GNgqwnPTAQaCT2dqPT3&#xa;PHfbf/B7V57WS9tXtdVpuqVPh1UzjlxYSs1fM6URTRSqKtCnAGAPERIA5Jrt&#xa;P3ixlrx2JX2Y3XgMntnubrbW9yEh6uj3Fp52qxdtRU0Ns1bS0Z8sv6RpExBs&#xa;JaEallQQIQHA3iEkAMilRVM9eG4r1u9cbevpbQLCG/36Qlt3VQPdYULCbNHT&#xa;aNh/WzP/9uUnXYPyq9tLisX6GUmaug3jvrD4nL65flF//z2f0h2jc+a5y8fU&#xa;MQCDh5AAIHfsrKLtTqqrrcTtg2Abd/G6TfOYLJkQZY9q4PdVSLB9CJE5rtTX&#xa;TEjYUCfHuyjvNBcUOt2N/6401jRZrBISAOwZlkAFkCs2IFwzg9+vrkX6lcst&#xa;bZgBcT3hbezNqr6nwxVff/1IWR+b7p/rQbZ6YI+//9S/d03LeGsPTR01IWFE&#xa;//KhvyIA2Av5W1AbwFBrm0DwUi3W5WbiGpWHb8HMm2OykzZNheVio7vyUbtP&#xa;gtSCCQhPrl4wz11HeHtLJkDZx2rF3A57vwaAvcF0IwC50jJj3S+tRm5PhHWm&#xa;Gb2tjikSL5oH65tbkau0HDhQUrEPLgs9v7mg37z0hJqEhHd0sd7dbfpsbVlj&#xa;YZllUQHsOkICgNy42Ei03En0lBn4NpjKflPONrp9Gz+yr+hCQsnfm/4Ee0X8&#xa;WxsX9YIJCXY/hJRm5ZtiA9WpUfZOALD7CAkAcsP2Hyy3U11qJMLNWXLN3Z4L&#xa;VbFdUXOPqgmtJNKZzUUtNtaHcsO022WnZsUJr3cAu4+QACA3fn2h5TYLw81z&#xa;eSpJ9VtXWzpY9vXTB3Z/tRzbqPyCCQifvfSk2zQNN88+diU/dI/dg9NHdbQ6&#xa;IwDYDYQEAH2vnXQblrdjc9CpfFvWTRUm9FK3OpTn7W5BYdMEg1rcNM9h5JZA&#xa;xa1pJ7GuNjfcPgoAsFtY3QhA31tpd3dUPmOOs02aEW7HV9YifW096q4Itcsr&#xa;HZ3ZWtAr29fckqdMNbp1a+2avnD1ORMUNgUAu4WQAKDvrZir4DYkdOh1vW1t&#xa;u1FXnOjprUjX2rv7QD6xclYvbi4Kt8duOGcbvxcbm276ET0KAHYD040A9L2V&#xa;TqKX6nanXuE22SlbJmfpme1YRbvRWnn3rhE9sXrOTTXC7ekksavC2ClHNiTM&#xa;lEYVcI0PQI8REgD0LTt/vpWkOmsCwlfXO6rHpIR3w4asl2qJjld253G8WF9R&#xa;PWq7q+BJynP3bl2sregbQUF3je13zcwA0Eu8ywDoW5EZWNpgsGFGtyttBpnv&#xa;ls1Yq6YqU4u7DcxBj7dMWGnXtN1puuVP8e6tteuukgAAu4F6JYC+Zdf2f3Yr&#xa;dmv9492zK0Q9bR7Ps/VY19qJm4LUSy+sL+ixpVeEnfHs5mXXwEzzN4DdQEgA&#xa;0LeaZlB7tZW6ufTYOdvm8VxsJa5S00v2yredaoSdEaWJ60+wqx3ZXasBoJcI&#xa;CQD6li0gnDFXvZc7VBJ2kl1S1i4nu93jHo9rrU2drS0LO8MGhGbc0YXaqi7U&#xa;VwUAvURPAoC+ZZuWrzYT1VjWaEfZcHC1napX2ctumNaJY11rbmmxyRz6nWbD&#xa;V+hzjQ9AbxESAPQte6HbNi03E0LCTrIVmk3zuPZq3wm7kpFd29/usrzRaQg7&#xa;a6vT1HbYFAD0EiEBQF+yV7vXzCj2bCNRLELCTrrW6jYtN/b35nHdjpq6UF9R&#xa;K+4IO+9SfY0lZQH0HCEBQF9qmZBgV+PpMBjacS3zkG5FSc+mG9m589tRyzXa&#xa;YufVzGO7GVGhAdBbhAQAfWnVVBE26UXoiYYJYHZ52ahHFZpm0nE7BNuwgJ13&#xa;qbFqKgkEMAC9RecTgL7USno3Zx5d9dhWFHb+Qe4kiZs3TyWhN9pxZKpsbFAH&#xa;oLcICQD6kp0z36FhuadsRaEXy6BGZgBrQ0JMSOgJQgKA3cB0IwB9ye6NsMF0&#xa;o1yy4aAetRUnhIReWO/UVWkVBQC9RCUBQF+ylQQyQm/FadqTx9j+d+lH6J2W&#xa;qSK0UyoJAHqLkAAAQ2rdJISl9s5f7be9CLW4pVhUEgAgrwgJAAAAADIICQAA&#xa;AAAyCAkAAAAAMggJAAAAADIICQD60v6ir0kWaQYAYE8QEgD0pUoglQPeogAA&#xa;2At8AgPoSzOmkjBOJQEAgD1BSADQl0YDTyOmklAy71LmLgAA2EWEBAB9aSy0&#xa;IUEq+p5CQgIAALuKkACgb5VMCeFI2U474q0KAIDdxCcvgL5l36AqppJQoJIA&#xa;AMCuIiQA6FtjppLw4Hig+RIpAQCA3URIANC3ir5d5chTlc5lAAB2FSEBQN8q&#xa;+Z6OVwJN0LkMAMCuIiQA6FuVoBsSZku+yuY+UQEAgN1BSADQt+wso+mi5/ZM&#xa;sM3LHikBAIBdQUgA0PdOjfj6kbmCRuhNAABgVxASAPS9ydDXiUqgsnnHoj0B&#xa;AIDeIyQA6Hsnqr4+OVtwm6qVqCYAANBzhAQAfS/0PLcc6ukRX6ervG0BANBr&#xa;fNoC6Hu2eGCXQz09EuiuaiAAANBbhAQAufHByVAfmym4zdVKvHsBANAzoQAg&#xa;J/aZZJAqcZWFRAAAoFe4FgcgN+x+CfMmKPzc4ZI+PlUQAADoDSoJAHKl4Hk6&#xa;UfG1GaWaKXrajqRWkgoAAOwcQgKAXLGrHH3IVBFSeXpqM9b5RmxCggAAwA5i&#xa;uhGAXDpW9fVj+4u6cyRQmb0TAADYUYQEALk0EXp673igmYKnAhkBAIAdRUgA&#xa;kEtl39O+oq+/NF/SP7ijIgAAsHMICQByyWQEtxTqmKko7DdhYdLc2uAAAADe&#xa;PUICgFw7XPF133igv328rL90oCgAAPDusboRgIFw10igUVNN+Ph0qPONROca&#xa;LHkEAMDtIiQAGAinRrpNzNtRQV9a7RASAAB4FwgJAAbGeMHXhydDTZmwcLcJ&#xa;Db9zraO1TqoGm60BAHBLCAkABoZdCnWm6OtglKqT2MbmjnzbeUVRAQCAW0JI&#xa;ADBwjlcDd7xnLNC1dqp//GJd9TjVeoeKAgAAN4OQAGBg2Te4oqku3DcaaNNU&#xa;F843Ym3H0lZEWAAA4J0QEgAMrOmibw7pn5yq6sVarC+tdPTl1Q4hAQCA74CQ&#xa;AGAoHCj5+vhMQUcqvlY6qQsMtrpwllWQAAD4NoQEAEPB7sw8FgbaZ6oLdrWj&#xa;V0xlYbVDSAAA4K0QEgAMlXEbFuTpb5+oqG3CwkIz0dPbsZ7ZivT1jdhVFwAA&#xa;GHaEBABDxfe6t5MmLHQS80VZbvrRatvXtXKq5U6iVizZrGAPc1epu094AAAM&#xa;D0ICgKFV8OWmH31yxh4FNw2pFqf607VIi61UZ2qxrrYTV124ar6OyQkAgCFB&#xa;SACA6+xmbFVTarhrJNBBU1U4WvFVMwGhaaoIl5q2wpCqYUoLbfO1yQ7qpN3g&#xa;UIuVS3bqVdETAADfhpAAANeFnqcwkE6ZkPBmr9ZjtyHbSjt1S6hum/v1pBsW&#xa;ltr5LDFMhL5KPikBAPDtCAkAcBPmS77sOkiHyzLVg9T1KtgqQnK9dyGPpkzp&#xa;pEBGAAC8BUICANyEanB9NO2KDIysAQCDzRcAAAAAvAEhAQAAAEAGIQEAAABA&#xa;BiEBAAAAQAYhAQAAAEAGIQEAAABABiEBAAAAQAYhAQAAAEAGIQEAAABABiEB&#xa;AAAAQAYhAQAAAEAGIQEAAABABiEBAAAAQAYhAQAAAEAGIQEAAABABiEBAAAA&#xa;QAYhAQAAAEAGIQEAAABARigAuypJu7exUqXmfmLu22+lqTBAfE8yf7vD9zx3&#xa;RcZ+D8CtSa6/OcZpYt4v7ftmqvT6++cbee6cM3953RPNN/cDe+55XA8Fbgch&#xa;AdhlLfPJ1jbJ4Jr5Rz1Otd5J1TDJIUqEATIaeArN2KRqbmcK5ij6qvh20CIA&#xa;t6AZd8x7ZqSrrU3zntnSequuhvlelMaZnyv6oUrmqAYlBb6vsUJZE4WK5ssT&#xa;AnDrCAlAD9iPLnuVa7GZqG1utyITBEwgqJswYO/bkLAZJ+7WBgUbECIqCQOl&#xa;ZAJCYI6iuZI5GnoaMelg/HpwGDdf28AwYW7HzFE09+3PU2nAsHJVAvOmudTa&#xa;Uj1qa7vTNO+XbXO/pU1zv53E2ujUXViw3+uYn4/fFBJCLzCHb86ngqselINQ&#xa;I2HZBPQRVYKCCxEjhZK73VcaUzUsmu8XBeCtERKAHujYyoAZ9D+1FWnb3Hmp&#xa;nmjBBIYrrUQrHRsSSATDyFYUbCA4PRpof9HTqZFAxyu+qzLsKzIlAsOrE8dm&#xa;4B/rmY1LWmpu6czWVV2pr+lKY03LrW21TDi4HQUTHMphQQdMNWGiUNUdY3Mm&#xa;mJf1yOxJHaxMqlIhJABvh5AA7ABTDNArjdhcBUv09FasxVaqtY4JBq3E/Zqd&#xa;TmSrBi1XMSAgDKtN82LwzMXPpzYjlU1Y+Np65KYj2SlINjDMmqBwjwkQR8q+&#xa;DpcJDRhctnLw8tY1XW1u6un1iyYMrJv3zJoWGhumshqbCmvbBYN2HLnwcNu/&#xa;jxJXmbhkwsZCc0MX6iuu2vDHSy9qyoSGyWJV900edgHiIyY42OlKdpoSAEIC&#xa;sCNsELAVAxsOXjVVg/PmWDYhYTsmEOB1Hdd30g2M3Xb119mZRvY1ZCsMtuIA&#xa;DDIbEraiphu4v7x9TWdrS65iUItarzUq74Tufyt1QcHa6jS7v9CQqyjYQDBm&#xa;AsJsqe2mMoU0OQOvISQAt8lWCezx6wttrbS7FQTgdtnXjz0+v9zRWNDtY/jU&#xa;nJ0m4etH9jElAvlnqwX2+O1LT5pQsKxvmQrCXrIhxR6/ceHP3Ne/+NIXdbQ6&#xa;rQenj+kT++/W6bED2l8ad03QwDAiJAC3wF4BbiaJqxgstq73GJhvbt/edFng&#xa;LdmXk+1bWTCvLfNS0zNb3WlJh8uBm5rECknIC3t13q5EtNjYeC0krJiKwXan&#xa;oX5kpzattLZ0obaqNPUUjcUq+QXtL48LGDaEBOAWrHQSnW8k+pXLrdcakYGd&#xa;ZlfCapjC1O9e67ivv2CqCx+eCvWfHyq5FZGqpATkhJ1CdM5UDX75lT92TciX&#xa;TUjoZ7Ynwh7PrF9xqx/9xOGHXECwt8CwISQAN2GxnWrLBAQ7FWStk7qAsEW/&#xa;AXaJ7VV4YSvWZ660dHo01HzJ032jgVspCehHdqC9aaoFv7fwtFbbNRcQNm/0&#xa;A+RAK+koNu/5j6+8qvFCRZ0k1smxfTo5ut+Fh4DeBQwBQgJwE641Y11qpfrN&#xa;xfZrqxUBu8UG0udrsTu+ZybVXSOB7qrakCCgLy02N3SxvqrfuPi4a1K+0Tic&#xa;F3aKlNTR46vnVPADXa6v6QcO3G+qChMqBSEhAUOBkAC8g5frib602tGfrXd0&#xa;ztyvEw6wx766FunrG5EuNWLNl339zMGS7GJIBaoK6AN2WdM/vPq8vrb8ss5u&#xa;L7nVivLOVhFeMX8WG3gevfa8/vrJj+lwZVp3jO4TMMgICcDbWI9S15RsVzBa&#xa;bqfua2CvtUxQta0w9nVpO2KumQrXuHknnyh4NDRjT62361pqbWqhse52Tl7r&#xa;1DUobEPzZrvhqiI2MHimkjBfnnRVBnsAg4iQALwFGwj+13NNXWombuMroN88&#xa;tRmbUBDrW+b2U/sKbpnUmYLPFCTsCRsQ/sWZ39fF+oq+sXpBg2g7brnjX73w&#xa;B+7rf/rAT2mmNOo2YQMGESEBeJMXarGrHFxqJG41I6Bf2X2i7EpIdiqcnYb0&#xa;kalQE6GvChc2sYte2FgwFa0tFxDsakbD4htrF3TQVBOOVKc1Uxx1Dc3AICEk&#xa;AG/yB0sdN5XjqS0qCOhvNsLaqtefrkd6djs2AxVPp0ZkQgLlBOye/7TwLV1p&#xa;rg9sBeHt/ObFJ3RiZFbzlXG9b+qoCQnTAgYJIQG47uV6rFfMFdlvbEZa7dB/&#xa;gPxoJqmijvT7JuDaaUg/f6Tk+hNoZkYvvbR1TS9vXdXXV89ppT08FYQ3Wmhu&#xa;uLDQSRNF5jhamWaHZgwMXsnAdUvtVM+Zq7F2s7RFNklDjnSuL8v7Yi3WExuR&#xa;bI89ffbotWvNTT2zcVlna8tuX4Rh1Iw7btrRxdqK20k6Ep8dGBxUEjD07NQi&#xa;u7PtN8zg6us0KSPHLja7A5R/8kpDd1R8/fzRsoCddqWxrt++/KSeWDnr9hGA&#xa;9P+e/5pbIvV/e/9fc6se2V2agbyjkoChZneytXO6bVBgB2UMivVO4qbMXWsn&#xa;qvG6xg7aippuJaMr9TVtRvnZQbnXYqWKk0SXzONi94oABgGVBAy1F+uxm6Lx&#xa;H6/lazdQ4J3YvgS7QteJqq8PTYTmluWOsDPObC6647OXnxJe144j2U+RX3r5&#xa;yzpYndRH51gWFflHSMBQitJUdvPkL610zNVWrrRi8GybCoKdQnek7Gu26Gsk&#xa;8EQfM26Xbcq1V8q/ePV5XWsOZ//BzVhr18x55uvxlbOaLY/qxMicgLwiJGAo&#xa;2UZPOwvjS6vm6k9CSMDgsVPpvmEqCu+fSHVHNVWV7ZjxLkRx7HYdftSEhHZC&#xa;79bbWe3U1VGiJ1bP6fT4PCEBuUZIwFB6ciPWcsdulpa6DamAQWNDcN384ytr&#xa;HZ1txPq5IyW3IzNwO17YXtDZ7SW3gk/Cm+Y7slOPbGP3R9p36YHJI5osVBT6&#xa;TPlD/hASMFRs0cB+vNlVYK6YgyoCBpV9ZdugcLnZbV5ux2bwEqQqMucIt8AG&#xa;AvvXQn3dNeS2qCJ8R/YxsitALTY2dK21qfECq4whn7ishKFiN52yK758frmt&#xa;zyy0BAw6G4if3or1TC1yjfrArWgmHV1tbuoLV5/Xr577qnDzXti8on/x/O+b&#xa;CsyygDwiJGCobJsx0ku12FQQBAyV8/XEHcCt2O40dWZrwdw2hFtjKworrS23&#xa;G7WdpgXkDSEBQ2XBXFW1zcorHQZLGC5fW4/cAdwKO23m0asv6EpzXbg1WyZg&#xa;vVpbdpUEuys1kDeEBAwFGwnsBlOXmrGe2orUYNYFhoyddnSuYQ5zDqwTkvEd&#xa;2F6EtXZdF+orenL1vJabXAm/XWe3r+n5jSsC8obGZQwFuxiHGR+53ZUvNRgg&#xa;Yfisd1IFXqLVdqpSydOkgLdnm5Ubcft6UFgVbp/dobroU4lB/lBJwFBoJam+&#xa;vhExJxtDzRQR3AaC52hgxndg59M/vnpW55gm8659Zfll/faVp9z0o3rUFpAX&#xa;hAQMjdV2oo2IJU8x3FZNRYFiGm6GbbbdaNOw/G4l6u5Wbasy21FTQF4w3QhD&#xa;wfYgfG091kqbkIDh1YhTfXU90l0jbOyEd2aveD+29DKr8uyAZtxdMODJtfOa&#xa;LY1qX3lcQB4QEjDw7IZpDXMstBK3Ay0wrOyr354Ptj/Bng92B+Yi9WS8STuJ&#xa;1TAh4UpjzbxnMj1mp9iVojz2MkSOEBIw8GzxoGnCwZUWcyww3GxIaLkG/sSF&#xa;hLHAYwdmfJt2YleA6+hyg2bbnbTQ3FApKAjIC0ICBt6FeqxLTSoIwA1XW6m+&#xa;uRnpoCkjjIaEBGSd215iRaMeeHLtnKKEvUqQHxSaMfCWO6nWIqoIwA22N2G5&#xa;nYjhCt7KcmvbNdliZ622alrvNBWniduHAuh3VBIw8F6sxW5qBYCumgkJS+3U&#xa;9ScAb3Zmc9HNn8fO2o5a2urUdbW5qclCVdWwKKCfUUnAwDMZQTWWPgVe0zTh&#xa;YNOcE+yWgLdil+lkqc7e6CSxNjoNdVLOPvQ/QgIG3rKpIiyz9CnwmlokLbZS&#xa;tRin4C0stbZ0zRzYeTYcLJoqTd1UFYB+x3QjDLxm0j0AdNlKQtTp9ibYlb/K&#xa;Ac3LeF0z7qgV0bHSC7aSYPs9WjQwIwcICRh4dqYRs42A13VSe9ieBM4NfLtO&#xa;mjAdpkdSc97ZvSeSlCtX6H9MN8LAW4kSrXR4QwbezG4yuE3zMt5kpb3tDuy8&#xa;yIQD28DcSfhMQv8jJGDg2XxASwLw7expwUqMeLNOEqmVdISdZ5c+tdO5IioJ&#xa;yAFCAgZe01yxsfOuAQDfWT1qu4Esdl6Uxlpt19yu1kC/IyQAwJCyjctbNCUA&#xa;AN4CIQEAhlTd9iRQZQMAvAVCAgAMqVLgqcryp8Cu8eWp4ocKPYZf6H+8SgFg&#xa;SAX2ICMAu8bzPHPO2agA9D9CAgbeXMHXviIvdeDNKr6n0R6khGpQ0MHKpIo+&#xa;W/H0wmhYcgfyxwaEsUJFoR8I6HeMnDDwQnPlJuSyDfBtSoENCtpxge+rGhbl&#xa;e5x4vVA2IcweyB9bQyh4gaglIA8ICRh4JXO11B4AsmwVYbKw8x8DtoIwWay6&#xa;wRB23oR5bCcKVSF/bHAuhwVTSWD4hf7HqxQDb65kD0ICcMOoKa3Nl3xXZesF&#xa;25Rpr3R7VBJ6Yjwsa7xQEfKnZM6LA+VJVQKmi6H/ERIw8EYD3xwCcJ3NzOOh&#xa;nfagnvBuTKkgJPREd7oR/R55FJhzYqJYUYGeBOQA7zIYeIfL3dUkAHSNBJ72&#xa;Fc1AvkenxVRxRA9MHlE1KAo770h1xjWGI38q5py4Y3TOnBtUEtD/GDlh4Nl5&#xa;1xMBL3XghrI9Jwq9a+i3K7fYgGAHRCVWONpxE4WKpk0QQ77Yc8H265T9gqm0&#xa;8ZmE/se7NwbewVIgz0sEoGvGBIRTI0HPNlKzPQlhWDQVhapmSqO60lgXds7J&#xa;sf1UEnJotjTmwp1d+QvIA6IsBt5k0dNUaFc4EkuhAuo2Lh8wJ0Svtw+ZL0/q&#xa;xMissLP2l8fdgXyxwc6GZiAvCAkYeJPmqumUCQpF31PIKx7QmAkJB8t+z5cG&#xa;PlCe0PGROWFnERLy6WCVkIB8YciEgXdjV9kjZlA0U2BFCQwv+4Y/awLzflNF&#xa;OGxDQo9XH7prfJ8emj4q7Iwj1Wk9OHWUjdRy6iOzd+n+ycMC8oKeBAw8O+3a&#xa;rgdvw0JdqYBhZTOBraiZfODOh14bDcuccTtoNCy5TeqQT7OmijBmzgkgLwgJ&#xa;GAp2esXPHSnpq2uRzl2JBQwjO73oofHQ9SPshtPjB9ztWKGiOI1Vj9rC7XuP&#xa;eTwfnDrmVsdBfthwUDLP2funjwvIE6YbYSj4bvMoaeT6BlL0L2MY2Ublu6q+&#xa;Zoq7ewbcOTKr/SXm0N8uu1qUXVJ2f2XCTTliI658mSpU6UVALlFJwFCwIWF/&#xa;KTBv1olbI74ep+bKpoChUvQ8fXym4Hp0dtOHZ+90y6CerS0Lt85uBmk3qDs5&#xa;uk8PTh8T8sWGO0IC8ohKAoaCHRLZcHCo7OuDE6HbcRYYJveOhrp/LNBk6Ltz&#xa;YTc9MntS904cMr9v0W20hltjA4INWvvKE0L+PDx9XJ/Yf7eAvCEkYCjYIVHB&#xa;TTnydKLim5AgYKjsL3X3RqgE3XNhN91proAfqc64aTIBk/1uWdE8bneOzmmU&#xa;Tbhy6WBlSqfHDgjIG0IChoqtJPzo/qIOmsHSKNUEDJFP7Svoh/ftzSBzJCzp&#xa;2MiMfuLQ+3T3+Lxw8/Zf32vCVmNm6evIlQOVCX3f/L1uQ0H2tUAeERIwVOzq&#xa;Lna32emir/ECIQGDr+B5qppAPGle95N7tCiO79kdzwPtMwMluyyq73Hu3Szb&#xa;9DpaKLmgVWSqVm7YZnO73On+yrhKQej6SoC8oXEZQ8WMk1wF4ZPToe4bDfQv&#xa;zzUFDLJ7xwK3cdrhiu/6EfbKVGlUP3n4YdWitr61cdnctpSkifDOPn38w24J&#xa;Ta5E54cNBLYC9N7Jo/r0sUfc8wfkEdEWQ+lENdB9ZvBkpx3NUFHAALKB2O4P&#xa;crLq66HxwK1stJds9aDohzo6Mq0PTB/nqvh3YJc8HTdXok+Pz+vwyIyQHyXz&#xa;Ord7Ipwa3++qCVQRkFdUEjCUbEiwbCPndpRqpcMGaxgsgRmUd0NCoIcmQjfV&#xa;bi/58ty0C7vOvx1AfX31nJpxR3hr1bDoNuC6sSEd8qMYdEOCfa2PFdhhGflF&#xa;SMBQ+5nDJb1aT3TxYlOdNFWH2Q8YEHNFT39+vqgHTBVhpuCrX/r07UpHdirG&#xa;N1bP62prU0+vXxJeZ1eAshWXv3rsEd0xOifky0PTx3SwPKmPzN3lqkFAnhES&#xa;MNSOVXy3sZodQLG5GgaJrRzYXgTbg1Pso9kOtgHXHpPFqjn32kKWrbjY6Sl2&#xa;NajTrASVOzPFUc2UR+lDwEAgJGCo2elG5oKr/u7xsr602jFHJCDvfu5Iyb22&#xa;Pza9R8sZ3YS/e/cP6FpzU3/ziV81YaGltXZdkD46e1Kf2P8evW/qKAPNHLGr&#xa;UFVN+P2ZEx+lyRwDg5CAoVcxV1rtyi8nKoGuVBOdb6ZqJ5QVkD/zJvHaBYzu&#xa;qgauH6GfdZeIrOgjZlB8pbGuJ9fOm/MuUjSkKx7ZZtfjI7O6w208N+2mHaH/&#xa;2dexnR52z8QhHaxMaro4onLQv+EcuBWEBAw9u4b8e8dCRUl3RZhfX2ybwYqA&#xa;3Dle9V3/wffM9P8gxQ6k7ED4Z+/8bj229JLO1Za13q4pGtIpSLbZ1VYQbMPr&#xa;g9PHhHywU8OmTDD45P67XR/C/tK4Ap/VjDAYCAnAdccr3auvC61Eq51EX11n&#xa;xSPkw/6S76oIPzjX3U08Lzzz11Sxqvsnj+ivHP+QHr36gp7duKLmkAWFj87e&#xa;pZlSd6A5WxoT8qESFF3vyI8ceq97DdvXssdGgRgghATguhkzyJopBjo1EuhK&#xa;09NXRUhAPkwEck3K7xkNTdjNT0iweyfYgdZ8ZUIfnLlDz6xfdtWF5pCdenaa&#xa;0cHqJMud5ox9rdolTu1rd7484V7LwCAhJABv8ql9Rbd3gnWhaSsKNDOjP9l+&#xa;mg9PBvquyYK+a6agck5nOYyFJVVH5vQ3T32v/urxD+vvPfnv1U46A9/MbPsx&#xa;Tpg/91878Qjr6eeIXcEoNAHhf7z/x90yp3eY5zCggoABREgA3uRGw+dBM+La&#xa;TlKNm69bicxBMzP6h32d2qKBnV40W/Q12eeNyu/E93zZvd7GCxXXBDpfHtdG&#xa;p6GtTlOJUiXp4Jx7budpL3Qby82VxlwFYdQEBLszL/qbfZ0G8szzNmqev4Kr&#xa;HpSu99YAg8hL0wF69wV22Nl6rD81lYTPL3f07DbTj9A//vKBoguyP32gpEFj&#xa;Vzs6s7mof/7850xQaGgzampQ2CB0sDKhHz30PldJsKsZ9Zsf+qN/4Z4DZM0W&#xa;R13PyN8wFa+TY/vcakbAIKOSALyDyYKv+8YC22Gp+83t7y513KZrdXZewy6z&#xa;V9oL5rh3NNSBkqcPToSaKAzmFAd7Vf3E6Kw+ffzDennrmjmu6pXakmpRS3k1&#xa;YcJBwQv0gwfv11RpRA+4RtcRof8VTaXg7rEDJhjs10kT6o5Wp6n8YCgQEoB3&#xa;MGUGYVOFUIfLgRpJqi+vRW4PhTpFBewyO6GhaJLCg+OB3m8Cgg2v9utBZOfn&#xa;28M29H5l6SVVgoKuNjdzHhKqbv76jx1+0DW42oEm8qHgh7p/8rDeP31CH5g5&#xa;4Z5HljnFMCAkADdhJPDcfgr/5FRVy20TFlbaeqkW68U6Gyqg9z45U3C9Bx+Y&#xa;DHWs4mvMvBYHNSC82X1mcHZkZEYPTR93QeGXX/1jteNIm1FD/cwu71oNizrh&#xa;Nkib0yfn73Fr6NuN0uzcdvS36cKI6xX5IVP5sT0y75+5Q+OmemCfU180KWM4&#xa;EBKAm1C4/pl+32ighWail7Z9t58CsBv2FT2dqHanvpXN+CQckoBg2Wk69rB/&#xa;4pGw5HYmjtP+L+XZxW7sRlsTrgdhUqfH5pnDniO2sdxWDE6Pz7sGcyo/GEY0&#xa;LgO3aStKtR2n+syVlq6ZwPDFVZZKxc6wVYMDZV+fmivogLn/0ATXc97oYn1F&#xa;T65dcJuv2Qbny4019YOKW+km1I8fep/2mavPP3n4Ybdakx1w5smwNi4fqky5&#xa;UPCJfXfrwemjpuozI2CY8ckD3Ca74qS5wOsGcRVzZfe+0dRtv9YwwaFmD5MZ&#xa;6iybiu/AFqlsYcAuYWqntNkld/eZ15Q97AZ/owFTG94s9ELNlkZ1fHTWVRYq&#xa;YUFREmuj3VAz6ZhzsKPdMl4ou4qB7TOw6+dPFCs6OjLj7gduaVeev34UmufG&#xa;Ll1qD/tc2dfRidE5HTOvKfvaqgSDt2oYcKuoJAA7wC52dK2daKWd6nyju2zq&#xa;2UaiF2t0OOOd2b0O7PShHzFVg6OVQI9MhS4YjOV434Pd9ujV57XS2tZXll/W&#xa;2e0lna0ta7d8YPqEZkojrsn6kdmTunN0n5sWledwMOiVBPvcjIZlt6TpjAkE&#xa;P3b4fW4qmG1MBvA6KgnADvDclWBfVT91V4RtdcFuq3CxGbvKwrVWquVO4pqe&#xa;t02FoWOyuQ0VGA5lEwLsbsgzRd9VoGzzsasamGO/ea2MFaTDpcB8r/s6Culr&#xa;vSV3jx9Qx1QSjo7OaL3V0Hq7bga5a6rHLV2orZrbttuYbb3TMOdjW01TaUh1&#xa;89fHbF/BqBn47zcDydGwqJGgu0RrOSjortH9KgaBWxJzX3nCfY/iQX+w1R17&#xa;TJrnz66WVXWrSs246V+2mXzEPGf2eT1QnTAVvIoAZBESgB1gx3TmIrA5PLd2&#xa;/eFKd5S30PJd74JdCelcwzMDRFNtMEctMaOItjAk7HYG9rUxY+7Y23tHAzet&#xa;aN4EBBsYbHjA7TtwvSHYTvNpxXaZ4khntha0bKoLoRdo04SDxeamCxJRGqtl&#xa;fv1WiugVv+AGmXZlopniiJuO8uDUMU0WqzQj9zE7lWjEhDpbLbArFNmN7B6Y&#xa;OuwCwf2TR3LZLwLsJqYbAT10Y8+1VpKawUn368Rew0xtNUFqmmLCZuf1isKK&#xa;qS4wQSnfxk0ZoHx9zF80gcBWluyX9uKyXVo9kF2+1K580w2XgbnsTNvBzrEf&#xa;afa0i9PEHTYQJOZ79n5iv2d+tdZpmfMvdhWF7aiZ2X9hv6kG3GArCLYyEFxf&#xa;stQOKH3zl3vO7Hx2z3/t1wbJo9eed2ErL2x/QcmEAbvpWdELXQO5XWbWBjt7&#xa;vvnXnyc7zcj2Hlg2INjTzqPsA7wtIjTQQzcGf9XMKPD1+00THkaC1wcZRfOB&#xa;xWbO+TZe9F4LCbaCMFWgSrCb7KDPBTJTQTDDezfIf7N62DahPXFTj2xAqJmg&#xa;cMO+twgJw+ZgedJVY/LC83w3lajoGpFDV/nxTSK3U4kA3D4qCQAAAAAyuMQF&#xa;AAAAIIOQAAAAACCDkAAAAAAgg5AAAAAAIIOQAAAAACCDkAAAAAAgg5AAAAAA&#xa;IIOQAAAAACCDkAAAAAAgg5AAAAAAIIOQAAAAACCDkAAAAAAgg5AAAAAAIIOQ&#xa;AAAAACCDkAAAAAAgg5AAAAAAIIOQAAAAACCDkAAAAAAgg5AAAAAAICMUgF2R&#xa;RrEUJ0prTaXtjuKVLaWdSGmjJUXm+0nivq80VV54paKC2QmFh2bkT45qkCXb&#xa;DaXNjpL1baWtTvcwz5/M85rUGq/9nBeat9XAl1cIzG1gbkN5I2X5IyX3GLmv&#xa;SwVh96Spea4ie96tm9u6eTLb9oRUYu+ncfdA/vlFeeZ47cvyrDkhC+acLJvD&#xa;nHtBWQBuHiEB2C02IJiBZby25QacnRcvK603Fa+asNBodweb23YAk5+Q4I9X&#xa;VXjPMTMALg98SEjNcxNv1BWdu6pks949TOBTu614ce21n/MqpW4QGDUDEhMY&#xa;7GMTzE0o2DdpvgzkV8uEhN2W2JCwpbh20ZyDy+a+CXpxU0lrxdy2uqEBueeC&#xa;QGHsta/DibvN96ryipPy/QIhAbhFhASgB6Lzi2bwv63mHz+txAwsO69cVmIq&#xa;B/Hyphlt2qpBaq5qRu6+zN+2emD/ylNAsMK5SRd8CicPKDy+X3mX1luuKtB6&#xa;/EUX3qLzV9U5c1Hx1XUXCuzzldjqQZx2nzv7dNm78ZuuRPuePO/6bE57YysK&#xa;vqkuBJ75OuhWXqbG3WNWeu8dCszXxXuOER7eDVMZsAP/ePNVxduvKFp/xrw2&#xa;1xXXL5inqm1+2VSCblQNXqscxN3nUPk67/B2zPnlvWEWtW/PJ9+di15gwkJg&#xa;Kp/VIyZITKiw/yOm0rBffsUcxRnzYwyHgDfjrADeresDe1sdkJ0+ZCoC0ZVV&#xa;Ewg2FF9adlebI3NrB53JyqYGSTLS7E67iRPlURqZ/28zwHdTwTqx4pUNJVv2&#xa;+VpyIS++vKToojmWNtw0MSU3/+d8p2GnDYlBrWUGK746s2Nm8JoomBqTN2Kq&#xa;EKbaIBMWvGLR3Kdt7B2ZwX5qw0FnyzyPbVchSBpXFDcWlDSXzHHNhIQrrwUI&#xa;DCd7LroqghcqNYcf1RTUL18Pi3F3iqedqlQYMYEitD8sAOZUSNMcTYAG+lCy&#xa;3TRXmWuq/fsvKb6yotYz50xIMOFgbVuDzk6hqXz8AY389Peo/P7TyhtbHWg/&#xa;d95Ueq4oemVBjT/6lqkarHWnfe2yYH5GwcyYqyiUPvwelc1hpylRXXh70fY5&#xa;N32ocebfuqAQbb4g4FYVph9yU5LKd3zanG8zCkdPCACVBODW2cqBufIcr266&#xa;q812OsqNwaarFtjGVjuVCP3JVT5iNR9/0YW79nMXFF9bV7K07npEXFVhD6TN&#xa;lqlkmILGuUXX+JyY11Lh9GF51bJK9x7tTlka9sBgrvwmrfVuf4GpECTbZ83X&#xa;JpA3zQOXtATcjri1JD9uqHPtK6agMG1eVxcUjB439ye7PQ4eFT0MJ0ICcKtM&#xa;SEiabbXPXFL7yZe1ZSoI6UZ9T64+49YltZYSEwY2f/F3uuHu2XPqBzZcStuK&#xa;F0016vEz7nuV73mvqSZMKvw7P+XCQjDkIcH2FMS1s4o3zqi9+KipJJx1lQTg&#xa;3UhqF11rWLTxvOtXCCrzKh39KYUzDyqwjc+EBAwpQgJwC9y0lMvLanzxKddv&#xa;YKcVpRs1Ny8f/c32GXRMtadlgl3n3FV1Xr7i+hH6WfvZ8/JHrmrz3/y2a3Iu&#xa;PniXCsf3ueAwLNLEVOXM0Vl6zITzRbWv/YmbWuR6DWwvArCT4rrixqJaVz6n&#xa;zvJXVZj7sAkO4+b2I/KCCiskYagQEoBbEC9tKLqwpMYffOP6Mpg1IR+SzYab&#xa;WtT40rfc4DsP4qV1c3T32CguHZU/NaZwbkKa0/BwqxF1FG+9omjzjJsSAvRK&#xa;mpgLPol5n199qvsNv+BWQCpMP+gan0VIwBAhJAA3ofbZx9T+5qva/KXPCfkR&#xa;L64qurqu1f/u3ylZr7nKTx7ZKog96p//ukofvFuFY/s19rM/KH96VOH8tAZR&#xa;txH5jNoLX1Rn8dHungb0HWCXta/8gVvtqGNeh4X5T6g4/0kF46dNdhgTMOgI&#xa;CcDbiRIl9ZYZnF1T5+yiG3AiH27siNx58ZI656919z9oDcaGWel201UYOi9d&#xa;kjdW7S6dGgTm3Xxw5k0nzatK2muu98AuY5q6HZLzucwuBkMat5U0rrnXpN1z&#xa;QXaDtupBAYOMkAC8FducXG+q+diz2vo/P+96EewKOMgHO4i2e1Os/A+/ouTa&#xa;xkA1lbefOyc9Z25fuKTwwLSKpw67na/tMSjaC19QXLug5tnPCNhzblWtZfO6&#xa;/AN3lI78uAITECqnfkHAICMkAG/i9j3Yqqv2/31F0atX3DQPuyEa+p9dwtQ2&#xa;JdvmZHuka3Y52sFsKk9rdcVXPW3/xpdVeuCEiubwJ0flFfL7th5vn+sOxq59&#xa;RWlnsDYexOCw+3Ek9SsKZ55wS6SG4/nbIwa4GYQE4E1Sc9XZTi3a/rU/dINO&#xa;u/cB8sGGuc7z5gr0l76l+u8/oUGWbDWUNtqq/YcvK221FZiqgjdSznlIOKuY&#xa;5mT0OTvlyK6LVlh5v5tyREjAoCIkANcl22bQZY7Vf/x/uZBg16sX06Bzo/57&#xa;f6bo5QVt/NLn3OB5GNhVj+zrtPYbX1Lj81/X5N//SyrccVCFuw4pT2wFobP0&#xa;FbUXHmXXZORG49VfdSHBNtkX5j7qNmADBgkhAUhTc3SvzLrVcGxAWFg1AzAS&#xa;Qh6ksXmekkTxxWXFKxtup+JhYl+nbjneVkfR2avyKmWFJw7I8z3JHn3ODrDc&#xa;rsl2B2Vzm7L3AXLCvlbT5op77aZ29a3ynLxwRMCgICQAcbdJ2fYg2ClGNijY&#xa;K7TIh/jqmlvedPWf/pqGVdqOJHNs/rvPySsVtP/X/5G7DeyeCn3MDrKaZ3/N&#xa;Td9oLX5RQN7YYGsrCnFrVeHkvSod/Un5BAUMCEIChp7dEK394mXFV1ZcD0Ka&#xa;pEIOmCvoabutzrPn1T5/VTCD7mbL7SLdeOxZt/JRZeI93aVR/f5bHjVprytp&#xa;Liuyy5za3ZOBHLOrcdmqdGHuEak0I784PLuiY3AREjD07FSNxuefUPvZczQp&#xa;54gNCPHqtuqPPuUaldGdMmdt/x+/r8I9x1R6753yKkV5/RgSahcVNy6rTQUB&#xa;AyBef8YdpQPfYy5g1AgJGAiEBAy15uMvKnp1QY0vf0vxCgEhT9pnLqn+H/9U&#xa;7adeJty9SWSqYgp8F35LD9/lehT6RRrZal1DrUv/UUljUcAgaV36nILqAQVj&#xa;p0wFLzABvSAgrwgJGGrRuUV1zi6o89JlIV/i5U232V10fZoYXpesbyuulNR+&#xa;7oLCuw731xt92jEnXkPxxnMmJDBNDIMl2nzevMTXuq9zu/YFIQE5RkjAUIqX&#xa;NpS2Otr4V7/pbpEfdqna2m98Wa2nXjGD4PPCW4sXVrT5S5+TSqHSRkulB0+6&#xa;Zua91ll5Qu3FRxVtvWyqCoOzEzZg2eBrG/Jrz/1zhVPvU/noTwnIq/6bqArs&#xa;AhsSokvL3YDQiYR8SO1zZZ4zOwCOV9mR92bYlZ+ic2bg0tzjvSPSxIWCpL2h&#xa;pLliTkLCOQZX0loxx6oSu6Rvwmp5yCcqCRhKttG188oVExbWhfxIVjYVLayq&#xa;9rt/xhSjm9T8o2+pbaoulU+8T9rDFVHTuKm4flHR+jPqLP2JgEFlw3DnqnmN&#xa;J6niaXPejZ+W748JyBtCAoaKXU/eXlG1AYGpKvnT+sbLrgfBrkiVUgG6KfF2&#xa;97Fqv3BB4UZNhVN7sxtz2l53Oyon2+cEDIOkvazO8hMKKgelAiEB+UNIwHCJ&#xa;IjfA7Lxy2S15inxpPfmK4ktLbm8L3JzUvN5jmdf8mYtKa809Cwl2X4TO4qNu&#xa;8ylgGNhpddHKE0oOfIK53cglQgKGiu1DqP+nP3M9CcgPuyN2Wmup+bXnFF24&#xa;Jty6+ue/rnBuQtUf/qB2W7R5RvHWS9c3nKIXAUOis2Ve+y+4HcWtcPy0gDwh&#xa;JGBopFGi+Jq5mvniJaVNBip5kjbabi8E20Nil/fErbPNy26XatusHwTywt27&#xa;tpnUF10TZxqzmhGGR5q0bAez4sYVeXa6ESEBOUNIwHCwAWFx1fUh1H73T4V8&#xa;scGu+bXnlZhqAm7PjSb91pMvKzw8a4457ZbWpd9yPQnAMLK9ONHyEyrOf0JA&#xa;nhASMBTSKFJ0eUXxGleh88gt43n+KsvVvktpq+2Cst0vYVdCQtw0v2mqpLHg&#xa;dloGhlHaXlMSt80bmanieZ45GHohH3ilYiikUaz2s2cVXaFpMo/sikatx18k&#xa;JLxLdqpR4/Nflz9edZur9VrS2bYdy4rWnxcwrJJmd2dxuwywPDvVj6EX8oFX&#xa;KoZDO3KDTDvYRH7YvRDsvgg23NmehDRJhXchTl57LJNmW37RfAT4vetNSBpX&#xa;TFBg0zvA6qx8Q35pRuHUfQLygFW5MBTsOvG2cTO5xrzoPHHN5ksbSjZq3c3T&#xa;kkS4fal5/JK1bbcUqg3O6vHDaQNC2iKYA5bdTDBuLAjIC0ICBp4dZNoKQuel&#xa;S655GfmRrG6q8eWnu/0IePdMJSbdbrplZG0Dc9LjXatts2Z74Q8FwJwPS19T&#xa;vPGCgLwgJGDgJbWGuRLd3XU25Up0vsSp4hVzNbreFnaGqyZsN9xqR7aRuZeS&#xa;yE5rog8IsOwywEmHajbyg5CAgRdfWKIXIacSM4iNTRUh2WBVqp1kq2vtZ8+7&#xa;Dep6KWleU1y/IABy54I9J4C8ICRg4NnG13iBkJBL7ajbk1Bj+cydlNZbipc3&#xa;XHWtJ//9uGkCnqkgRA1znyoQYLlzwZ4bHbsIAxt6ov+xuhEGXrS4Yg56EfLI&#xa;Ll3bnRbDB+pOsk3gyVLvQoLilmtYdjssJ2yABzjmXLABOo22ukuh+gUB/YyQ&#xa;gIEXXzGVhEtLQr7Y1aiiy8tuJR56SXaWXeGoYwJY2uzNVf7UDIZcLwJXS4GM&#xa;NKq75uVw/G4zAqsK6GeEBAy8pFZXUudqZt7Y5lo7LcZWE7Cz0nZH6bZdGjh2&#xa;Kx7J97ST7FSKJNpWmhLugIwkUtLeNOcGARr9j54EDLx0u9XzBk3sPBsSkgbP&#xa;Wy+k7UjpVqP7GJtjx//7nW3FW6+6q6YA3igx54UJ0AkXP9D/CAkYeHZKRdpk&#xa;sJk7drMvqgi9FUXdxxnArkhNJSGNGnbekYB+R0jAwEvWa+5AviSNtpImJfle&#xa;SluReYwJ0MCuSWNTyVszb3Cs+oX+R0jAwLNVhF41aKJ33FSjNiGhl2xvQtKL&#xa;cyNumTHQmhsQAXgjExKSJucGcoGQgIFnG197ttQjesfukM10o96Kkp5MN0rt&#xa;1VK7RwIDISArVXeqEU39yAFCAgAMqcTul9CDxmUAQP4REgC8O2Egz9vZJTSx&#xa;i+wSqDvNvBw8LxCAN/PcRmryGH6h//EqBXD7Al9epWRuGRDidZ5XkBdWCQrA&#xa;m5lw4PmVblAA+hwhAQPPH6nIH2Vny57wPXmlggsLwGvsVVK/aNOCALzBjXOD&#xa;4RdygFcpBp43VjFHWegBe1XMhATPZzCINzBXSb3AVJj4iAHexOueG0w3Qg7w&#xa;KsXAs9NhvAohoRe8QqBgblK+nXIEXOcFRfmlGTMOKgjA6+w54c6NgM8k9D9C&#xa;AgaeZ+fNMx2mJzy/W0mQz+OLN7hRSeBqKZBlq6+cG8gJXqUYeOHJgyrcdUDo&#xa;gXJB4ZE5eSNUEvA6vzChcOJu17wM4A1MQPCrh0xQ4NxA/yMkYOD541V5YyPC&#xa;zvMLofxJ89iaW+A1ftAdBNG4DGR4XijPhGgFRQH9jk92DLxwflpi597eKAQK&#xa;D87Kq/CBhzfwS/KKk24pVACvsz0JQWXehAR6EtD/qCRg4PnzUwrMgZ0VHprt&#xa;Ni2Xi/R8IMNzPQll89qY6w6IAJhz4YC80qw7N9hDBHnAJzsGXjBWlc90ox3n&#xa;T47KnzCPazGkcRlZbi34grzCqKkoTAiA3DQjLxxz5waNy8gDphth4BXvOabA&#xa;DGg9ExYURUobbeHdK77vThWO7xfwdvzROxWYa1HRxhkBwy6Yuk9B9aiAvCDK&#xa;YuC5JTrN4Y9V5BfJxTvFnzDBa4R5tXh7XjjqVjoC0F31ywupaiM/CAkYCn61&#xa;pOoPfkCFB+4Udkbl4/er9OBJAW8nnHyPCvs+IgBy50I4fb+AvOCyKoZDIVTh&#xa;zoNKNmrCu2OrB14YKDw8a6o0rGqEt2d3lk3DMXM7qzTpKO1sCBg2bjlgP5Rf&#xa;Oeh2IwfygpCAoWAHtYWTBxVdXhbeHd+GhFLBhIQ5Ae/EhoMbt2lcV0xIwBCy&#xa;mwraXZaD6kEBeUJIwFCwS3TaBuZ4YVWF4/OKFleVNmlgvh3ljz9AQMAtCaff&#xa;p7h5TXHtgoBhU9j3UQICcomQgOFgKgndnZcr3WZb1vW/bcHchJtqBNwsu7Ga&#xa;byoJwDCy0+7sVCMgbxgpYagUTx7U2M/+QHcXZtwSuydCeGTONSuXP/weATer&#xa;csdfU+ngD8orjLndmIFhYHsRguohhVMPqDD7fgF5Q0jAULFVhPD4vBnwmqrC&#xa;SEW4eS4kHNvfrchUWfoUt8AruE3VgtE75ZXY/RxDIqzIrx7phuOAzxvkDyEB&#xa;QyWYm1T5/afcnPpgelS4ecHBGZVee+zGBNwsLyzLL06rMPdhc2X1sIBh4Jdn&#xa;XT9OUDloXv+EY+QPIQFDqfr9D2vkL3+PcBN8T8HMmEr3nTCP2/tNJYHNgHDr&#xa;bF9Cce4RhWN3dQdMHh8/GFDmtW1f48HoSRXnPykVuKiCfKJxGUMpvNNc2TFV&#xa;BRZk/M4833fTi4JDMyree0zA7bDrwwdjd5qrq/u668Z3tsx3EwGDx3PLnga2&#xa;kjBxWkBeERIwlAqnjkhxrMrH7leytq3W02eFt+ZPjWnqH/5Vt88EcNu80Pw9&#xa;osL8x80V1qPafvp/Vtpi3xIMHltFqN7z38hnah1yjpCAoeSFvnn1+woOzpp3&#xa;dN9ttqYkVZpwZfONvPERc5grYvPT8seqAt4VOw2jMCqV98sPR5XEDaURu6Bj&#xa;cNgmZc+8xn3zGrfVBCDPCAkYavYKeftbr6rzyhUlm3WlGwxY3mj0L3yXa1S2&#xa;y54CO8EOnuxRPPTDShpX1Lr4WwIGRfHwj7mN08Kp+wXkHSEBQ80rFRQcmFb1&#xa;Rz+s9pMvq/XkK0pbHSlNNcxs9cAvF1V+/2n3+AA7rTD7sAkJR9RZflxpbAJ6&#xa;e01AXnmhqSAEJRWn3ye/Mi9gEBASMNRuhISRH33EhYP2cxfMYCUa+pAQjJmQ&#xa;MDmi0gdMSNg3KWCnFWber6S1rODCQSXNFcWEBOSYnUbnFSYUTj9oLrDMCRgE&#xa;hAQMPb9UVHh8vyoff6/8allbv/aHSla3NIxsaLKbplV/5ENuV2Wf/RDQQ15Q&#xa;UfXuv6HO6pNqvvprSjvbSpOmgLzw/IILB8VDP2CC78NuPxBgULBQNRD4LhwE&#xa;cxMuLAy1MHBBITy2T4VTrMyB3rIhIRg7aYL6nBlslew3BOSK57tpRkH1iHst&#xa;A4OESgJwXfGeY+6wgSG6tKS1/+n/0TAJj8yp/PEHNPFf/airINjHAegpO8Aq&#xa;jKl44HvdVdjGy7+szrXHFDcuC+h3QfWQ2weheu/fM6/jSVYzwsAhJABv4k+O&#xa;Kmh13L4AabOteHFNaZJKA7o8qlcuumpK4Z6jKpyYd5UEBVzRxW7y7eLyCir7&#xa;lY6fdr0K5qRTmnYE9BvPL7uAawOCP3LMvXbl856JwUNIAN6k/JF7lNSbSuNY&#xa;rW++ovpnvyo12krbgxkSwgPT8qolTf/3/1l3Z2X6ELDLvLDsjtKxv6jiobqi&#xa;x86YjGDOudaSgH7jV7q7htsKgg0IfmlWwCAiJABvwSuEKr//lMKj+1S886Aa&#xa;f/ik2s+eU7wyOA3N4cFZBYemVf3hD7l+DBcOAtqUsHfswMv2JlRO/9dKmtfU&#xa;WfkzJbWLiuuXBOw1u7SpXzmg0oE/54KB3VnZvGoFDCpCAvAWbEgIj8+75T/D&#xa;gzNqv3RZ3tlFaYBCgjc5ovDYfDcMHd/vqgjAngqK7qY4/3ETDC67aUdppyYR&#xa;EtAH7CpGtkE5nH5IwcgR83qtCBhkhATgHdj5+sH8jCZ+/kc0+he+Wxv/++8q&#xa;WdpQ6/EXlUfeSNn1XIz++e9W6cE7uzspl0y5vFwQ0C+80ATY8VPyT/+84o0X&#xa;zHFGrcu/Z6oLV7v9CsAu8YIRecVxlY78mMKp+xROPuCqXXZFI2DQERKAd+L7&#xa;tj9N/kTVfFAECg/NKS6aQfUrC92dmc2RRrH6na2MqGiqI4dmFUxWFR4xt/un&#xa;5E/Rf4A+5HWnvfnmym1amlNa3TJXcI+6iR12d2bFHZqa0VOeZxdwKHSnGJnX&#xa;oZ1m5Jf2yS+yuSSGByEBuAn+xKhkjul/9GnFS+tqfOk+Nb/2vFrmiBdW+z4o&#xa;FE3VoHBsvyb+9k/Knx6VP8pSfciHYOwOd4RT7zPBfEX1V39VSf2iotUnBfRK&#xa;MH2/m1JUveu/NBeIplx1Cxg2hATgFtkpO7ZfoRzHCsyV+PZz55Vs1dV5ecFc&#xa;4Yzdsqn9wPZT+ONVBYdnVbr/Dlc98Mcq5qzntEf+2NWPlE6qMP2gkpGDrnE0&#xa;qV9R0tl0oQF4tzzbjFywe8QcVDhxj7tVOMomfxhajBaAW2Q3GbPNvrKHUf9P&#xa;f6ZocVVbv/x7SutNxX0SEgp3HnSbw1W+/2Fz/4CCOcrkyC/PDNbsUT72U6Zy&#xa;V1faXldr4YuKNs+oTUjADghHTyiYOK3i/CdMFeG4/DJLm2K4ERKAd6n0gVMq&#xa;tjquCThZ3VLn/FV1Xryk6MqKOs9fkDqR4rVt9YqtbBRMZcOfG1cwO6Hyh+8x&#xa;pfJRBQdmTCVhxFUTWLkIg8Q2jXpmAFc68EkV939UpX0fVRJtK958SXHtoqss&#xa;2CVU07gp4NuYykA4dpepHJj3yPKMwpmH5Ren5Vf2yw/H3C7gYvdkgJAAvFs3&#xa;rtCHh+dcv4IdtCfbDaUmHESvFpSqt7ww6E4rMv8ftjG5+MAJt0GaDQjAQLLT&#xa;P8zhpoPYL/2SElNZUNwyVYaG611wuzgDb8HzQhcE3F4HlQMqTNznAoILBwBe&#xa;Q0gAdpAdqNuj/OH3vPa9ZLPu+hZsgIiXNtz9dL3WDRJ2etLKlqk0bCmtZa96&#xa;2uVXvVLBVQF8c79w6pDbGdmfGnUbodmlTMsfMx9uY1U3BQoYVjYsuHnkk/e8&#xa;9r2kuSxFNUXbr7r70fZZpY1FE943TZComaOptL1sqg0mWCQtIf9uLE1qN+Wz&#xa;IdJOHZLdoK84ocCuTmRuC3OPmAsrVRqRgZtASAB6Lehe6VeSms+twC2bmmw1&#xa;zMClbQYtLYUmLMSbZtDSzC7p6Be7y5Z6paILDHZTN69i7o9Uuk3JJhh45ZL5&#xa;QXb8BN7M800Vzy+6JStT81eQxkrtFBJbaYjNkbS7gSEx513CcqoDwTznnjtK&#xa;3UrTyGFzYxdrGFFQnjHvxSPdXxONyMDNICQAPeaPlFwDMYDdY68e28OvHuCD&#xa;DgBuA5M2AQAAAGQQEgAAAABkEBIAAAAAZBASAAAAAGQQEgAAAABkEBIAAAAA&#xa;ZBASAAAAAGQQEgAAAABkEBIAAAAAZBASAAAAAGQQEgAAAABkEBIAAAAAZBAS&#xa;AAAAAGQQEgAAAABkEBIAAAAAZBASAAAAAGQQEgAAAABkEBIAAAAAZBASAAAA&#xa;AGQQEgAAAABkEBIAAAAAZIQCAGAHdVaeVPPCb6qz9JjS1rLyxguq8otT8oqT&#xa;8sKqOUbN/XGF46fklWbll2cVjJ+WXxgTAAwqQgIAABmp0qQtxQ2laSw/jcxt&#xa;W3GtIq+zaYLPipR0lIQj8grj8nzzUVqYkB+UTH2+KAAYBIQEAADeILXhwBxq&#xa;Lbmv4+vf77zhZ3xTUfCCosLZD8ivHlFh+kFp5LirMgDAICAkAABwi9KobqoN&#xa;LUUbZ+Q1FpXULsqvzMs3lYVg6n754aiCsTsFAHlFSAAA4Balcd2VGOKNF9zX&#xa;kTlsD4MfVlXWp5VW9hMSAOQaIQEAgB2QdjaVdLZVf+nfyfMCNV/9NYWmqhBO&#xa;PaBw5oPyixMCgLwgJAAAsBPSRKkSqb2m1IQE+YG80ox8cyQjtr8hvb4ikmf+&#xa;ZgVyAP2NkAAAwE5LYyWNq2rbY+ELKux/3IWF6qlfcCsg2cZnAOhnXMoAAKDH&#xa;kvqC4tpFta99RdH6c255VaWRAKBfUUkAAKDH4q1X3G3aWFQ4cVrh+El5BbtZ&#xa;Gx/DAPoTlQQAAHZJ0l5XZ+1Z1c/8G7Wu/L46q08qTagoAOg/XMIAAGCXuP0V&#xa;4rbai39kPoFHurs1j582l+z4OAbQX3hXAgBgN6WR0s6WWmc/o5b5cuTeNfnV&#xa;QyrOf68AoF8QEgAA2ENxY1Fp0lbSWpYXVOWFVQHAXiMkAACwh+yma15xSn55&#xa;v4LxUwrt9CMA2GOEBAAA9lrcdMujFtPU7afgFyZk/iEA2CusbgQAwB5Lk5Y6&#xa;1/5E0eYLSlor5uuOAGAvERIAANhrpoJgVz7qXHtMjRf+teLtV93XALBXmG4E&#xa;AMCeS83fsZLmkrmpK6lfkl8YlxceFQDsBSoJAAD0iTTaVtK4qubZX1ftuX8p&#xa;ANgrVBIAAOgzcWtJftwwlYUVeUFRXmFMALCbCAkAAPSZpHZRibmNa2ddQAgL&#xa;LIsKYHcx3QgAgD7VuvCb6ix9VQCw26gkAADQp6LVJ11DMwDsNioJAAD0qbh+&#xa;RdHGGbUuflZx7YIAYLcQEgAA6GNp0nYrHqVRTQCwWwgJAAD0sbS1pvbCF1xQ&#xa;AIDdQkgAAKCfpR0lrRUlzUU3/UgJPQoAeo+QAABAH0sTGxKWXSUhaVxRqkgA&#xa;0GuEBAAAcsDundBZ+YbSuCkA6DWWQAUAIAfi9ppkpxsBwC6gkgAAQA5E68+q&#xa;vfgFc6cuAOg1QgIAAHmQRpLtTzAVhaS9LgDoJaYbAQCQByYgpDIhwW6qlkTy&#xa;i5MCgF4hJAAAkCNx85pSL+QDHEBP8R4DAECOpJ0tpeG2AKCXCAkAAORIXL9k&#xa;N08QAPQSIQEAgBxJOzVTSdgUAPQSIQEAgBxJTCXBo5IAoMdYAhUAgBxJk7Y7&#xa;AKCXCAkAAOQJIQHALmC6EQAAOZK215UGFQFAL1FJAAAgR9K4RSUBQM8REgAA&#xa;AABkEBIAAAAAZBASAAAAAGQQEgBgSPljVQXTo9ppnh/IC8r2nrDz7GPr+WUB&#xa;QC8REgBgSHmlgrxqLwabvhnEmv+2x0dMT3iheYhZnBBAb/EuA6AvBQdmFK9t&#xa;C73jjZTkj+78UppeaK50V/abgWxB2Hl+adYcMwKAXiIkAOhLvh3AVopCD/j2&#xa;Sr8nLzAfAcUefAx4gfktilQSesU+tkw3AtBjhAQAfSmYm5A/OSLsPK8QdKca&#xa;2SDWi+lGJiR4YdXdYue5Sk1ASADQW1zmAdCX/PGqmwrjlU01IWSwuZO8kbKC&#xa;fZPmgnRvrhP5wYipAh00V7upBPWCV5wyx6QAoJcICQD6kj8+4lbfcVe8CQk7&#xa;yrchYc4MMgs9KiaHFQXVQ6YcVBJ2nm9DQmlKANBLhAQAfcsGhMLx/Uw72mH+&#xa;xIjCY+ZxLfemsdgz4cAvz8orjHanHWFHBaMnFI6fFAD0Ej0JAPpX4LslOr0C&#xa;b1U7yjyeXrVk5wWpJ2wvgjtC+hJ6wCuMmYeV8AWgt6gkAOhbti+h9KG7FRya&#xa;FXZOeGRO5UfucY9vT3+f6lFzxftuYWeF43coGLtDANBLXJ4D0LfsdCM7d743&#xa;G34NL/t42tWjet4QbqccdTaEneGqB3aTumDEVNk4JwD0FpUEAH3LKxVVOHlQ&#xa;wcyYsHOCqVEV7jzYm+VP3/j7VA8rnKCSsFP84oSCygG3upFfmBAA9BKVBAB9&#xa;y6+WzGD2gMJ9pppQKSlttqU0FW6PXSWqcPcRhQdn5dulZXt8mSicOK20elDY&#xa;Gf7IEQWjd7CTNYBdQUgA0L/MoNZNN7JLoRZDpa0OIeHdKJjH8+BMd7WoYu/f&#xa;/v3SrPl9WKpzp3jm8bRBgZAAYDcw3QhA3yvec0wjf/Fj8kYrwu2z04uqn/qQ&#xa;CqcOaTd4QcVUL0YUTj2gYIRG23crGD+p4r6PyPfpRwDQe1QSAPQ9f6yi8MC0&#xa;PN8zX/hKk0S4NW5DOluZmZnoeS/C67+pZ//hKgruGasJt8HzTOUgKMg3gcuG&#xa;LgDYDYQEAH2veO9xFU4e0vZvfFlxnCjdqgu3xp+bVHhkVpXvvk+7rXzHpxVv&#xa;nFG09i3h1nnFCRX2f1Th+Gn55f0CgN3AdCMA/c9uqlYqmLBwTIV7jwq3rvTQ&#xa;SZXetze79PoVu5KSOSqH3EZguDX2MSvMvF9emf1CAOweKgkA+t6NqTLFe0/I&#xa;nxhV62svCLem9L47FR6e014ITEBIoy13G5siUNrZEm7eayGhMCkA2C1UEgDk&#xa;RuVj96vyfQ/LGymbq6qs8HIzvLGKgn2TKn34PSp/5B7tFb80o9KRH3PLouLm&#xa;2WlGhZkHXV+HxwZqAHYRlQQAuREcmHFLoNrKQpqwFOrN8IuF13au9idHtVc8&#xa;v+SmHDHd6Na4cGArCH5RALCbCAkAcsMfNVdSD85o4u/8pFrffEX13/qq8M5G&#xa;/4vvV/XPPaRgdlx76caUmaS9aXJeqs7iF5RGNKC/nW7loKTqqV8gIADYE4QE&#xa;ALkTzk8rurIqf2JEabOjtNUWsmz1wJ8eUzA15nautkvH9gO/OKFg5IiiwFQU&#xa;kthUhFrCt/PLJiSEY92A4BESAOw+QgKAXPFHK6r+8IfkjVTUeeacOq9cUXyN&#xa;kPBmNiBUf+iDKt5/QuHxefWLcPI+heOnFF37ipKGp7i5KHy7wtxHFIye6O5a&#xa;DQB7gMZlALlUuPOARv7y96h49xF5lZLwumBmzO0rMfLjH1HheH+tq+/5BdeA&#xa;Wzz8w+b4ISErqB42AeERFWYeUjj9oABgrxASAORSYK6Ulz9wSv7chLwiRdE3&#xa;8qplBVOjbtnTvWxWfkue+dgxQSGcuEfBxN1CllecNhWEO+SPHHPTsgBgr3ip&#xa;7SADgLxJEqWJ1HnunKILS1r6G/+Lhp1rTi4UNPeLf0teqajiPcfUr2wvQhrV&#xa;1Dz7GcWbL6u9+Icaal7g+hBKR35CZXOoOCk/rAoA9gqX3wDkk+93L0pPjCg4&#xa;lLg5+GmjbY4hbIT1PPO3p2D/lFQyV+kPTJuw0N9v73ZJVPmRgspBpa217tKo&#xa;cXsoG5k9zzxXfqCgPO/2k/CK493HBwD2EJUEAANh+z982TUxb/6b39Gw8cpF&#xa;t5rRzD/7ORUfOLFnOyvfrmjjjKkkfNEcj5qqwhkNG78ybwLCfo0+/M/cikbs&#xa;JQGgH1BJADAQ7NQaf7yqyg88rOjlBRcYBp7vyR+rmj/7URXMnz88vt89Bnlj&#xa;V/CxeyiknS03QI5WntAw8IKK688oHfx++eV93SVPA5Y7BdAfCAkABoINCcHc&#xa;hJLNuup6YihCguf7LhQUHzypkR99pBsSqmXljV+eccewhQRTPnB9B8WD32f+&#xa;/PupIADoK0w3AjAw0k6kZH1b7WfOuWPr1/9Iycqm0vrgzXO3y5x6E6Oa+gc/&#xa;rfDoPne4aUd9smna7Uhay64vof7iLyppLquz9JgGkRdUFYwcVfHA9yqcfq8K&#xa;U+91PQkmJQgA+gWVBAADwyuEppow6QbMaSc2g7HAHQN5JaRYVDA58to0qzxW&#xa;EN7sxsZhfuWgBpoJBLZqEIzd6ZaC7e6qzIrkAPoLlQQAAyteXFG0sKblv/Wv&#xa;TTWhqXhlS3nndlA+OKOpf/hX5M+Myx8dzGUy7dSjaPOM2guPqrP4qKsyDMLK&#xa;R+UTn3ZVhPKJnxYA9DMqCQAGllcouFV/Sg+eVLy+Lb26qHSzrmSzpjzxwsAt&#xa;bWp7Lgp3HOhOLRqtmHfwQAPrxtX26kGl46fV2TYfV1FNqZ2SlCM3ljf1Kgfc&#xa;TtM2IHjlfQKAfkclAcBQaD97XvXPP2GOr6vz3Hnlid0Lwq5gVPm+h1X57vtV&#xa;OHVYw8JWFOzRvPhZRVsvq7PwBeWJVzDVHhN2yid/VsHocbeKEwDkASEBwFCw&#xa;qx5FF5fUefGS4qV1Fxji9Zqily6r39jeClslsBUQb7Ss6p97UP7UmMITB9xG&#xa;ab6tIgyLpGOOSFH9sqkiLCla+5bi7XOKVp9U0t5QGtfVb7pLmxZNIHhIwdgd&#xa;JhyYw1RD/OK0W8UJAPKA6UYAhoJbKvTeY2aQPaWk3lL7zEV51Y2+DAkKfHnF&#xa;UOHROQXz06r+0Afd1155CHfh9QvuCMdPmrBwTH5pWp2VJxVvvSqTHKRYfcdO&#xa;MfLCqgsG4dQDKpjDrmjkVjACgJygkgBguCSJ0kRKt2pKWh1XXWg/+ZKaT76s&#xa;5mPPK7W9C3vAGykrPDSj8nfdp9J9J1S477iCqVEXDHxTTTAjz+4x5FJbWYib&#xa;poLQdBWFtL2i5oXPmts1RRvPay/YTdD8yj5TMThpKgWzKh38AddP4ZfnXMDx&#xa;7OpF4vkDkC9UEgAMF993q016U2YQ147N0C1VsrSu8NqGCsdWlVRLSpptpZG5&#xa;RN2JXahQnHS/3iGuEdkehcDcD91tMD2mYGZc4WEz2DRhwQYG31YOBrk5+TZ4&#xa;1ysLdhCexg2ldkOy6gGl4aj81qrS1DxP9oiuT0NKO+YZNtfCduh6mOeWKg1e&#xa;3xk5qMgvTprn6oCCkYPySrMmMMy7/z9bTQCAvKKSAADXJXVzhXqrocYfP634&#xa;yorbkC0yt3aDtnhhdceCQnh4TsHBGRXvO2aOEyYQzHb7D0pspnXbkrbbgC2u&#xa;X1HSuKLOtcfM7YKpNrzqqg82UOwEu5eDO8ZPuSBQOvBJ87yZUDd6QgAwSKgk&#xa;AMB17gq/qSSEx+fNIHDE9TEk6zUltaaii9fMILQjtcyAM4qUtiNXaUhNlUGm&#xa;8vBt7O7HRVMpKF3fBTnw5U+PmnddX+G+aflTowoPzrqqga0iKKBi8K7YK/xh&#xa;pdsY7AUK5z6gtLWmYOK0m5pkm5zNk2aqQpGSaLtbbbBS81zGndf/O7ZK4aZ2&#xa;BfKDkrtVaKoCQXfakGeqBl44bqoF+833qy4g2NWLAGDQUEkAgJvQeemyku2G&#xa;4qUNt8+CXS3Jhge12ooX177t5/39JgiMlNwO0LZC4JnQYJcxdbsjmwCC3ZOa&#xa;gBA3F83tuskEdcWbryhNu8HALbEavaEPJRw1IcE8X2FZfnHKTRnyx+4wt6MK&#xa;TCCwqxZ5wRA2kAMYOoQEALgJdiqSEvN22Y5c9SCNY9er4PoVOtG3/bybOmSu&#xa;SNtViVwfhL0/UjYDTJ8+g91mpxvZwwYD+5EXvb5s6ms9DDe4hhXzfMlWf+z0&#xa;L6+7MpH9nt/92v0MAAw4QgIAAACADC6HAAAAAMggJAAAAADIICQAAAAAyCAk&#xa;AAAAAMggJAAAAADIICQAAAAAyCAkAAAAAMggJAAAAADIICQAAAAAyCAkAAAA&#xa;AMggJAAAAADIICQAAAAAyCAkAAAAAMggJAAAAADIICQAAAAAyCAkAAAAAMgg&#xa;JAAAAADIICQAAAAAyCAkAAAAAMggJAAAAADIICQAAAAAyCAkAAAAAMggJAAA&#xa;AADIICQAAAAAyCAkAAAAAMggJAAAAADIICQAAAAAyCAkAAAAAMggJAAAAADI&#xa;ICQAAAAAyCAkAAAAAMggJAAAAADIICQAAAAAyCAkAAAAAMggJAAAAADIICQA&#xa;AAAAyCAkAAAAAMggJAAAAADIICQAAAAAyCAkAAAAAMggJAAAAADIICQAAAAA&#xa;yCAkAAAAAMggJAAAAADIICQAAAAAyCAkAAAAAMggJAAAAADIICQAAAAAyCAk&#xa;AAAAAMggJAAAAADIICQAAAAAyCAkAAAAAMggJAAAAADIICQAAAAAyCAkAAAA&#xa;AMggJAAAAADIICQAAAAAyCAkAAAAAMggJAAAAADIICQAAAAAyCAkAAAAAMgg&#xa;JAAAAADIICQAAAAAyCAkAAAAAMggJAAAAADIICQAAAAAyCAkAAAAAMggJAAA&#xa;AADIICQAAAAAyCAkAAAAAMggJAAAAADIICQAAAAAyCAkAAAAAMggJAAAAADI&#xa;ICQAAAAAyCAkAAAAAMggJAAAAADIICQAAAAAyCAkAAAAAMggJAAAAADIICQA&#xa;AAAAyCAkAAAAAMggJAAAAADIICQAAAAAyCAkAAAAAMggJAAAAADIICQAAAAA&#xa;yCAkAAAAAMggJAAAAADIICQAAAAAyCAkAAAAAMggJAAAAADIICQAAAAAyCAk&#xa;AAAAAMggJAAAAADIICQAAAAAyCAkAAAAAMggJAAAAADIICQAAAAAyCAkAAAA&#xa;AMggJAAAAADIICQAAAAAyCAkAAAAAMggJAAAAADIICQAAAAAyCAkAAAAAMgg&#xa;JAAAAADIICQAAAAAyCAkAAAAAMggJAAAAADIICQAAAAAyCAkAAAAAMggJAAA&#xa;AADIICQAAAAAyCAkAAAAAMggJAAAAADIICQAAAAAyCAkAAAAAMggJAAAAADI&#xa;ICQAAAAAyCAkAAAAAMggJAAAAADIICQAAAAAyCAkAAAAAMggJAAAAADIICQA&#xa;AAAAyCAkAAAAAMggJAAAAADIICQAAAAAyCAkAAAAAMggJAAAAADIICQAAAAA&#xa;yCAkAAAAAMggJAAAAADIICQAAAAAyCAkAAAAAMggJAAAAADIICQAAAAAyCAk&#xa;AAAAAMggJAAAAADIICQAAAAAyCAkAAAAAMggJAAAAADIICQAAAAAyCAkAAAA&#xa;AMggJAAAAADIICQAAAAAyCAkAAAAAMggJAAAAADIICQAAAAAyCAkAAAAAMgg&#xa;JAAAAADIICQAAAAAyCAkAAAAAMggJAAAAADIICQAAAAAyCAkAAAAAMggJAAA&#xa;AADIICQAAAAAyCAkAAAAAMggJAAAAADIICQAAAAAyCAkAAAAAMggJAAAAADI&#xa;ICQAAAAAyCAkAAAAAMggJAAAAADIICQAAAAAyCAkAAAAAMggJAAAAADIICQA&#xa;AAAAyCAkAAAAAMggJAAAAADI+P8BEAq+eOxbm0wAAAAASUVORK5CYII=&#xa;;" parent="1" vertex="1">
          <mxGeometry x="46.5" y="421" width="80" height="80" as="geometry" />
        </mxCell>
        <mxCell id="6lIP8FJLp_YwbdEiwZGx-2" value="OpenAI" style="label;whiteSpace=wrap;html=1;align=center;verticalAlign=bottom;spacingLeft=0;spacingBottom=4;imageAlign=center;imageVerticalAlign=top;image=img/clipart/Gear_128x128.png" vertex="1" parent="1">
          <mxGeometry x="560" y="140" width="120" height="90" as="geometry" />
        </mxCell>
        <mxCell id="6lIP8FJLp_YwbdEiwZGx-3" style="edgeStyle=orthogonalEdgeStyle;rounded=0;orthogonalLoop=1;jettySize=auto;html=1;entryX=0;entryY=0.5;entryDx=0;entryDy=0;" edge="1" parent="1" source="v46jo1MRVlEFeAzN4dOq-1" target="6lIP8FJLp_YwbdEiwZGx-2">
          <mxGeometry relative="1" as="geometry">
            <Array as="points">
              <mxPoint x="510" y="185" />
            </Array>
          </mxGeometry>
        </mxCell>
        <mxCell id="6lIP8FJLp_YwbdEiwZGx-4" value="analyze file content" style="edgeLabel;html=1;align=center;verticalAlign=middle;resizable=0;points=[];" vertex="1" connectable="0" parent="6lIP8FJLp_YwbdEiwZGx-3">
          <mxGeometry x="-0.2649" y="-1" relative="1" as="geometry">
            <mxPoint as="offset" />
          </mxGeometry>
        </mxCell>
      </root>
    </mxGraphModel>
  </diagram>
</mxfile>
